<svg xmlns="http://www.w3.org/2000/svg" viewBox="0 0 20 20"><defs><style>.cls-1{fill:#fa5e5f;}</style></defs><title>资源 6</title><g id="图层_2" data-name="图层 2"><g id="图层_1-2" data-name="图层 1"><path class="cls-1" d="M15.61,17.25a1.24,1.24,0,0,1-1.22,1.25H5.61a1.24,1.24,0,0,1-1.22-1.25V4H15.61V17.25ZM6.83,1.75a.25.25,0,0,1,.25-.26h5.86a.25.25,0,0,1,.25.26V2.5H6.83Zm12.44.75H14.64V1.75A1.73,1.73,0,0,0,12.94,0H7.08a1.73,1.73,0,0,0-1.7,1.75V2.5H.73A.75.75,0,0,0,.73,4H2.92V17.25A2.72,2.72,0,0,0,5.61,20h8.78a2.72,2.72,0,0,0,2.69-2.75V4h2.19A.74.74,0,0,0,20,3.23.73.73,0,0,0,19.27,2.5ZM10,16.24a.74.74,0,0,0,.73-.75v-8a.73.73,0,1,0-1.47,0v8a.74.74,0,0,0,.73.75m-3.42,0a.74.74,0,0,0,.73-.75v-8a.73.73,0,1,0-1.47,0v8a.76.76,0,0,0,.73.75m6.84,0a.74.74,0,0,0,.74-.75v-8a.73.73,0,1,0-1.47,0v8a.74.74,0,0,0,.73.75"/></g></g></svg>