<svg xmlns="http://www.w3.org/2000/svg" viewBox="0 0 19.99 19.96"><defs><style>.cls-1{fill:#4c70e8;}</style></defs><title>资源 7</title><g id="图层_2" data-name="图层 2"><g id="图层_1-2" data-name="图层 1"><path class="cls-1" d="M9.28,0H1.43A1.43,1.43,0,0,0,0,1.42V18.53A1.43,1.43,0,0,0,1.43,20H18.56A1.43,1.43,0,0,0,20,18.53V10.69a.71.71,0,0,0-1.43,0v7.84H1.43V1.42H9.28A.71.71,0,1,0,9.28,0Zm0,0"/><path class="cls-1" d="M17.85,1.42a.71.71,0,0,1,.5,1.22l-8.29,8.27-1.28.28.28-1.29,8.28-8.27a.72.72,0,0,1,.5-.21m0-1.42a2.14,2.14,0,0,0-1.51.63L8.05,8.9a1.43,1.43,0,0,0-.39.71L7.15,12a.71.71,0,0,0,.7.81H8l2.42-.52a1.41,1.41,0,0,0,.71-.39l8.28-8.27A2.14,2.14,0,0,0,17.85,0Zm0,0"/></g></g></svg>