<?xml version="1.0" encoding="iso-8859-1"?>
<!-- Generator: Adobe Illustrator 21.0.0, SVG Export Plug-In . SVG Version: 6.00 Build 0)  -->
<svg version="1.1" id="&#x56FE;&#x5C42;_1" xmlns="http://www.w3.org/2000/svg" xmlns:xlink="http://www.w3.org/1999/xlink" x="0px"
	 y="0px" viewBox="0 0 1200 1200" style="enable-background:new 0 0 1200 1200;" xml:space="preserve">
<g>
	<path style="fill:#4867B0;" d="M779.341,322.028c-11.727-7.629-27.649-4.352-35.379,7.527c-7.629,11.879-4.301,27.75,7.578,35.43
		c80.281,52.172,128.254,140.492,128.254,236.289c0,155.137-126.004,281.344-280.832,281.344S318.13,756.411,318.13,601.274
		c0-95.746,48.027-184.117,128.359-236.238c11.879-7.68,15.258-23.602,7.579-35.481c-7.782-11.929-23.602-15.308-35.43-7.578
		C323.61,383.673,266.88,488.071,266.88,601.274c0,183.449,148.941,332.645,332.082,332.645
		c183.145,0,332.031-149.196,332.031-332.645C930.993,488.02,874.318,383.622,779.341,322.028L779.341,322.028z M598.962,623.649
		c14.133,0,25.602-11.726,25.602-26.266v-304.64c0-14.488-11.469-26.215-25.602-26.215c-14.129,0-25.598,11.727-25.598,26.215
		v304.64C573.364,611.923,584.782,623.649,598.962,623.649L598.962,623.649z M598.962,623.649"/>
	<rect x="267" y="266" style="fill:none;" width="664.8" height="668.88"/>
</g>
</svg>
