<svg id="图层_1" data-name="图层 1" xmlns="http://www.w3.org/2000/svg" viewBox="0 0 129.33 232.44"><defs><style>.cls-1{fill:#313131;}</style></defs><title>zhankai</title><path class="cls-1" d="M345.32,230.52v-212A10.18,10.18,0,0,1,355.46,8.3h2.35A10.18,10.18,0,0,1,368,18.44s0,.05,0,.08v212a10.18,10.18,0,0,1-10.14,10.22h-2.35A10,10,0,0,1,345.32,231Q345.32,230.74,345.32,230.52Z" transform="translate(-345.32 -8.3)"/><path class="cls-1" d="M398.56,230.12v-87A10.18,10.18,0,0,1,408.7,132.9H411A10.18,10.18,0,0,1,421.27,143s0,.05,0,.08v87.4a10.18,10.18,0,0,1-10.14,10.22h-2.35A10.49,10.49,0,0,1,398.56,230.12Z" transform="translate(-345.32 -8.3)"/><path class="cls-1" d="M451.81,230.12v-87a10.18,10.18,0,0,1,10.14-10.22h2.35A10.18,10.18,0,0,1,474.52,143s0,.05,0,.08v87.4a10.18,10.18,0,0,1-10.14,10.22H462A10.49,10.49,0,0,1,451.81,230.12Z" transform="translate(-345.32 -8.3)"/><path class="cls-1" d="M398.62,85.4c-.23,6,6.85,10.17,12,7l59.78-34a8.24,8.24,0,0,0,.12-14.35L411.13,9.46a8.31,8.31,0,0,0-12.43,7.19l-.08,68.77Z" transform="translate(-345.32 -8.3)"/></svg>